# xmcd
#
# Track frame offsets:
#	150
#	11420
#	26155
#	44207
#	60664
#	75360
#	89050
#	102600
#	120062
#	131275
#	146045
#	164042
#	180510
#	195187
#	208857
#	222322
#
# Disc length: 3932
#
# Revision: 1
# Processed by: cddbd v1.5.2PL0 Copyright (c) Steve Scherf et al.
# Submitted via: kJams Pro (development) 1.0patch49.33
#
DISCID=e20f5a10
DTITLE=Various Artist - Top Hits Monthly Country − January 1999 − Vol. 9901−C
DYEAR=1999
DGENRE=Country
TTITLE0=Diamond Rio - Unbelievable (Vocal)
TTITLE1=Billy Ray Cyrus - Busyman (Vocal)
TTITLE2=Mark Chesnutt - I Don't Want To Miss A Thing (Vocal)
TTITLE3=Deryl Dodd - A Bitter End (Vocal)
TTITLE4=Steve Wariner - Every Little Whisper (Vocal)
TTITLE5=Sammy Kershaw - One Day Left To Live (Vocal)
TTITLE6=Michael Peterson - By The Book (Vocal)
TTITLE7=Garth Brooks ⁄ Trisha Yearwood - Wild As The Wind (Vocal)
TTITLE8=Diamond Rio - Unbelievable
TTITLE9=Billy Ray Cyrus - Busyman
TTITLE10=Mark Chesnutt - I Don't Want to Miss a Thing
TTITLE11=Deryl Dodd - A Bitter End
TTITLE12=Steve Wariner - Every Little Whisper
TTITLE13=Sammy Kershaw - One Day Left To Live
TTITLE14=Michael Peterson - By The Book
TTITLE15=Garth Brooks ⁄ Trisha Yearwood - Wild As The Wind
EXTD=
EXTT0=
EXTT1=
EXTT2=
EXTT3=
EXTT4=
EXTT5=
EXTT6=
EXTT7=
EXTT8=
EXTT9=
EXTT10=
EXTT11=
EXTT12=
EXTT13=
EXTT14=
EXTT15=
PLAYORDER=
